<?xml version="1.0" encoding="UTF-8"?>
<!DOCTYPE svg PUBLIC "-//W3C//DTD SVG 1.1//EN" "http://www.w3.org/Graphics/SVG/1.1/DTD/svg11.dtd">
<svg version="1.1" id="Layer_1" xmlns="http://www.w3.org/2000/svg" xmlns:xlink="http://www.w3.org/1999/xlink" x="0px" y="0px" width="32px" height="32px" viewBox="0 0 32 32" enable-background="new 0 0 32 32" xml:space="preserve">
  <g id="main">
    <clipPath id="clip_mask">
      <path d="M16.609,26.4107c-0.5032,-0.509,-0.4996,-1.3339,0.0082,-1.8388c1.1403,-1.1331,5.5575,-5.6226,5.602,-5.6678l0.0131,-0.0133l0.0136,-0.0128c0.2585,-0.2438,0.5964,-0.378,0.9516,-0.378l3.5294,0.0106c0.4764,0.0013,0.9018,0.2868,1.0837,0.7273s0.0818,0.9431,-0.255,1.2803L25.1167,23H31.6c0.1397,0,0.2736,0.0194,0.4,0.0542V0H0v32h22.1445C21.4937,31.3432,17.6686,27.4832,16.609,26.4107z" fill-rule="evenodd"/>
    </clipPath>
    <g id="icon" clip-path="url(#clip_mask)">
      <g id="transformed_icon" transform="translate(-1 -1)">
        <path d="M21.1249,9.8654c1.911,1.911,1.911,5.0093,0,6.9203s-5.0093,1.911,-6.9203,0c-1.911,-1.911,-1.911,-5.0093,0,-6.9203C16.1156,7.9544,19.2139,7.9544,21.1249,9.8654zM30,15.5c0,8.0081,-6.4919,14.5,-14.5,14.5S1,23.5081,1,15.5S7.4919,1,15.5,1S30,7.4919,30,15.5zM22.8325,8.1376c-2.854,-2.854,-7.4859,-2.8495,-10.3455,0.0101c-2.4521,2.4521,-2.8028,6.2064,-1.054,9.0265L6.7471,21.86c-0.3288,0.3288,-0.3288,0.862,0,1.1908l1.1909,1.1909c0.3289,0.3288,0.862,0.3288,1.1909,0l4.6901,-4.6901c2.8174,1.7326,6.558,1.377,9.0034,-1.0684C25.682,15.6235,25.6866,10.9916,22.8325,8.1376z" fill-rule="evenodd" fill="#3E79B4"/>
        <path d="M22.8325,8.1376c-2.854,-2.854,-7.4859,-2.8495,-10.3455,0.0101c-2.4521,2.4521,-2.8028,6.2064,-1.054,9.0265L6.7471,21.86c-0.3288,0.3288,-0.3288,0.862,0,1.1908l1.1909,1.1909c0.3289,0.3288,0.862,0.3288,1.1909,0l4.6902,-4.6902c2.8174,1.7326,6.558,1.377,9.0034,-1.0684C25.682,15.6235,25.6866,10.9916,22.8325,8.1376zM21.1249,16.7857c-1.911,1.911,-5.0093,1.911,-6.9203,0c-1.911,-1.911,-1.911,-5.0093,0,-6.9203c1.911,-1.911,5.0093,-1.911,6.9203,0C23.0359,11.7764,23.0359,14.8747,21.1249,16.7857z" fill-rule="evenodd" fill="#FFFFFF"/>
      </g>
    </g>
    <g id="overlay">
      <path d="M22.9319,19.6055c0.0721,-0.068,0.1675,-0.1058,0.2667,-0.1055l3.5252,0.0106c0.1568,0.0004,0.2351,0.19,0.1243,0.301L22.7319,24H31.6c0.2137,0,0.4,0.1251,0.4,0.3387v0.8455v0.7578v0.6627c0,0.2137,-0.1732,0.3869,-0.3869,0.3869H22.745l4.1034,4.2078c0.1104,0.1113,0.0316,0.3006,-0.1252,0.3006H23.218c-0.1,0,-0.196,-0.0387,-0.2681,-0.108c0,0,-4.4704,-4.5109,-5.6296,-5.6841c-0.1186,-0.12,-0.1178,-0.3079,0.0019,-0.4268C18.4795,24.1311,22.9319,19.6055,22.9319,19.6055z" fill-rule="evenodd" fill="#4DA07D"/>
    </g>
  </g>
</svg>
