<?xml version="1.0" encoding="UTF-8"?>
<!DOCTYPE svg PUBLIC "-//W3C//DTD SVG 1.1//EN" "http://www.w3.org/Graphics/SVG/1.1/DTD/svg11.dtd">
<svg version="1.1" id="Layer_1" xmlns="http://www.w3.org/2000/svg" xmlns:xlink="http://www.w3.org/1999/xlink" x="0px" y="0px" width="32px" height="32px" viewBox="0 0 32 32" enable-background="new 0 0 32 32" xml:space="preserve">
  <g id="main">
    <clipPath id="clip_mask">
      <path d="M21.2213,31.7619c-0.1818,-0.4404,-0.0817,-0.943,0.255,-1.2801L23.9152,28h-6.4833c-0.7851,0,-1.4319,-0.5881,-1.4319,-1.3388v-2.266c0,-0.7647,0.6541,-1.3953,1.4188,-1.3953h6.4961l-2.4474,-2.5055c-0.3295,-0.3321,-0.428,-0.8328,-0.2448,-1.2726c0.1832,-0.4398,0.6094,-0.7219,1.0859,-0.7219h3.5052c0.3603,0,0.7016,0.1375,0.9612,0.3871l0.0172,0.017c0,0,3.6474,3.6804,5.2077,5.2574V0H0v32h21.3537C21.3014,31.9271,21.2566,31.8475,21.2213,31.7619z" fill-rule="evenodd"/>
    </clipPath>
    <g id="icon" clip-path="url(#clip_mask)">
      <g id="transformed_icon" transform="translate(-1 -1)">
        <path d="M26.6,30.5H5.4c-0.6351,0,-0.9,-0.2594,-0.9,-0.9V2.4c0,-0.6407,0.2649,-0.9,0.9,-0.9c0,0,14.6625,0,14.9,0s0.5495,0.0496,0.8998,0.3998C21.499,2.199,25.6164,6.3164,27.1,7.8c0.2527,0.2527,0.4,0.55,0.4,1c0,0.3125,0,20.8,0,20.8C27.5,30.2406,27.2351,30.5,26.6,30.5z" fill-rule="evenodd" fill="#FFFFFF" stroke="#6D6E71" stroke-width="1" stroke-miterlimit="1"/>
        <path d="M20.5,1.8v5.9c0,0.4418,0.3582,0.8,0.8,0.8h5.9" fill-rule="evenodd" fill="none" stroke="#6D6E71" stroke-width="1" stroke-miterlimit="1"/>
        <path d="M8.5,7.5h8M8.5,10.5h8M8.5,13.5h15M8.5,16.5h15M8.5,19.5h15M8.5,22.5h15M8.5,25.5h15" fill="none" stroke="#3E79B4" stroke-width="1" stroke-linecap="round" stroke-miterlimit="1"/>
      </g>
    </g>
    <g id="overlay">
      <path d="M26.1,31.3945c-0.0721,0.068,-0.1675,0.1058,-0.2667,0.1055l-3.5252,-0.0106c-0.1568,-0.0004,-0.2351,-0.19,-0.1243,-0.301L26.3,27h-8.8681c-0.2137,0,-0.4,-0.1251,-0.4,-0.3387v-0.8455v-0.7578v-0.6627c0,-0.2137,0.1732,-0.3869,0.3869,-0.3869h8.8681l-4.1034,-4.2078c-0.1104,-0.1113,-0.0316,-0.3006,0.1252,-0.3006h3.5053c0.1,0,0.196,0.0387,0.2681,0.108c0,0,4.4704,4.5109,5.6296,5.6841c0.1186,0.12,0.1178,0.3079,-0.0019,0.4268C30.5524,26.8689,26.1,31.3945,26.1,31.3945z" fill-rule="evenodd" fill="#4DA07D"/>
    </g>
  </g>
</svg>
